# xmcd CD database file
# Copyright (C) 1995-1998 Ti Kan
#
# Track frame offsets:
#	150
#	22512
#	48077
#	65460
#	88050
#	100697
#	118552
#	143267
#	158202
#	178622
#	190512
#	205822
#	218227
#	230967
#	249850
#	269502
#
# Disc length: 3784 seconds
#
# Revision: 3
# Processed by: cddbd v1.4PL0 Copyright (c) Steve Scherf et al.
# Submitted via: CDex 1.30FinalFR
#
DISCID=cc0ec610
DTITLE=Lightning Hopkins - Texas Blues
DYEAR=1989
DGENRE=Blues
TTITLE0=Once Was a Gambler
TTITLE1=Meet You At the Chicken Shack
TTITLE2=Bald Headed Woman
TTITLE3=Tom Moore Blues
TTITLE4=Watch My fingers
TTITLE5=Love Like a Hydrant
TTITLE6=Slavery Time
TTITLE7=I Would If I Could
TTITLE8=Bud Russell Blues
TTITLE9=Come On Baby
TTITLE10=Money Taker
TTITLE11=Mama's Fight
TTITLE12=My Woman
TTITLE13=Send My Child Home to Me
TTITLE14=Have You Ever Loved a Woman
TTITLE15=Black and Evil
EXTD=LABEL =Arhoolie Productions Inc.\nID =CD302\nUPC =09629-70302-26\nCO
EXTD=PYRIGHT =1989 YEAR: 1989 ID3G:   0
EXTT0=
EXTT1=
EXTT2=
EXTT3=
EXTT4=
EXTT5=
EXTT6=
EXTT7=
EXTT8=
EXTT9=
EXTT10=
EXTT11=
EXTT12=
EXTT13=
EXTT14=
EXTT15=
PLAYORDER=
